<?xml version="1.0" encoding="UTF-8"?>
<svg xmlns="http://www.w3.org/2000/svg" version="1.1" viewBox="0 0 512 512">
  <!-- Generator: Adobe Illustrator 29.8.2, SVG Export Plug-In . SVG Version: 2.1.1 Build 3)  -->
  <defs>
    <style>
      .st0 {
        fill: #fff;
      }

      .st1 {
        fill: #ccc;
        stroke: #000;
      }

      .st2 {
        fill: none;
        stroke: #fff;
        stroke-miterlimit: 10;
        stroke-width: 3px;
      }

      .st3 {
        display: none;
      }
    </style>
  </defs>
  <g id="Livello_1" class="st3">
    <polygon class="st1" points="117.6 97.5 256 47.1 394.5 97.5 468.1 225.1 442.5 370.2 329.7 464.9 182.3 464.9 69.5 370.2 43.9 225.1 117.6 97.5"/>
    <polygon class="st1" points="182.3 464.9 329.7 464.9 326.7 456.8 185.3 456.8 182.3 464.9"/>
    <polygon class="st1" points="442.5 370.2 468.1 225.1 468.1 225.1 442.5 370.2"/>
    <polygon class="st1" points="69.5 370.2 182.3 464.9 182.3 464.9 69.5 370.2"/>
    <polygon class="st1" points="256 47.1 117.6 97.5 117.6 97.5 256 47.1"/>
    <polygon class="st1" points="468.1 225.1 394.5 97.5 394.5 97.5 468.1 225.1"/>
    <polygon class="st1" points="182.3 464.9 329.7 464.9 329.7 464.9 182.3 464.9"/>
    <polygon class="st1" points="117.6 97.5 43.9 225.1 43.9 225.1 117.6 97.5"/>
    <polygon class="st1" points="394.5 97.5 256 47.1 256 47.1 394.5 97.5"/>
    <polygon class="st1" points="329.7 464.9 442.5 370.2 442.5 370.2 329.7 464.9"/>
    <polygon class="st1" points="43.9 225.1 69.5 370.2 69.5 370.2 43.9 225.1"/>
    <polygon class="st1" points="77 365.9 185.3 456.8 185.3 456.8 77 365.9"/>
    <polygon class="st1" points="117.6 97.5 43.9 225.1 52.4 226.6 123.1 104.1 117.6 97.5"/>
    <polygon class="st1" points="394.5 97.5 256 47.1 256 55.8 388.9 104.1 394.5 97.5"/>
    <polygon class="st1" points="329.7 464.9 442.5 370.2 435 365.9 326.7 456.8 329.7 464.9"/>
    <polygon class="st1" points="43.9 225.1 69.5 370.2 77 365.9 52.4 226.6 43.9 225.1"/>
    <polygon class="st1" points="442.5 370.2 468.1 225.1 459.6 226.6 435 365.9 442.5 370.2"/>
    <polygon class="st1" points="69.5 370.2 182.3 464.9 185.3 456.8 77 365.9 69.5 370.2"/>
    <polygon class="st1" points="256 47.1 117.6 97.5 123.1 104.1 256 55.8 256 47.1"/>
    <polygon class="st1" points="468.1 225.1 394.5 97.5 388.9 104.1 459.6 226.6 468.1 225.1"/>
    <polygon class="st1" points="52.4 226.6 77 365.9 72.2 368.6 47 225.6 52.4 226.6"/>
    <polygon class="st1" points="256 55.8 123.1 104.1 123.1 104.1 256 55.8"/>
    <polygon class="st1" points="459.6 226.6 388.9 104.1 388.9 104.1 459.6 226.6"/>
    <polygon class="st1" points="185.3 456.8 326.7 456.8 326.7 456.8 185.3 456.8"/>
    <polygon class="st1" points="123.1 104.1 52.4 226.6 52.4 226.6 123.1 104.1"/>
    <polygon class="st1" points="388.9 104.1 256 55.8 256 55.8 388.9 104.1"/>
    <polygon class="st1" points="326.7 456.8 435 365.9 435 365.9 326.7 456.8"/>
    <polygon class="st1" points="52.4 226.6 77 365.9 77 365.9 52.4 226.6"/>
    <polygon class="st1" points="435 365.9 459.6 226.6 459.6 226.6 435 365.9"/>
    <polygon class="st1" points="119.6 99.9 47 225.6 47 225.6 119.6 99.9"/>
    <polygon class="st1" points="435 365.9 459.6 226.6 465 225.6 439.8 368.6 435 365.9"/>
    <polygon class="st1" points="77 365.9 185.3 456.8 183.4 461.9 72.2 368.6 77 365.9"/>
    <polygon class="st1" points="256 55.8 123.1 104.1 119.6 99.9 256 50.2 256 55.8"/>
    <polygon class="st1" points="459.6 226.6 388.9 104.1 392.4 99.9 465 225.6 459.6 226.6"/>
    <polygon class="st1" points="185.3 456.8 326.7 456.8 328.6 461.9 183.4 461.9 185.3 456.8"/>
    <polygon class="st1" points="123.1 104.1 52.4 226.6 47 225.6 119.6 99.9 123.1 104.1"/>
    <polygon class="st1" points="388.9 104.1 256 55.8 256 50.2 392.4 99.9 388.9 104.1"/>
    <polygon class="st1" points="326.7 456.8 435 365.9 439.8 368.6 328.6 461.9 326.7 456.8"/>
    <polygon class="st1" points="119.6 99.9 47 225.6 72.2 368.6 183.4 461.9 328.6 461.9 439.8 368.6 465 225.6 392.4 99.9 256 50.2 119.6 99.9"/>
    <polygon class="st1" points="392.4 99.9 256 50.2 256 50.2 392.4 99.9"/>
    <polygon class="st1" points="328.6 461.9 439.8 368.6 439.8 368.6 328.6 461.9"/>
    <polygon class="st1" points="47 225.6 72.2 368.6 72.2 368.6 47 225.6"/>
    <polygon class="st1" points="439.8 368.6 465 225.6 465 225.6 439.8 368.6"/>
    <polygon class="st1" points="72.2 368.6 183.4 461.9 183.4 461.9 72.2 368.6"/>
    <polygon class="st1" points="256 50.2 119.6 99.9 119.6 99.9 256 50.2"/>
    <polygon class="st1" points="465 225.6 392.4 99.9 392.4 99.9 465 225.6"/>
    <polygon class="st1" points="183.4 461.9 328.6 461.9 328.6 461.9 183.4 461.9"/>
  </g>
  <g id="Livello_2">
    <g>
      <path class="st0" d="M190.1,456c-3,0-5.8-1.1-8.1-3l-101-84.9c-2.3-1.9-3.8-4.6-4.3-7.5l-22.9-130.1c-.5-2.9,0-6,1.5-8.5l65.9-114.4c1.5-2.6,3.8-4.5,6.6-5.6l123.9-45.2c1.4-.5,2.8-.8,4.3-.8s2.9.3,4.3.8l123.9,45.2c2.8,1,5.1,3,6.6,5.6l65.9,114.4c1.5,2.6,2,5.6,1.5,8.5l-22.9,130.1c-.5,2.9-2,5.6-4.3,7.5l-101,84.9c-2.3,1.9-5.2,3-8.1,3h-131.9Z"/>
      <path d="M256,59.5c1.1,0,2.1.2,3.1.6l123.9,45.2c2,.7,3.7,2.2,4.8,4l65.9,114.4c1.1,1.9,1.5,4.1,1.1,6.2l-22.9,130.1c-.4,2.1-1.5,4-3.1,5.4l-101,84.9c-1.6,1.4-3.7,2.1-5.9,2.1h-131.9c-2.1,0-4.2-.8-5.9-2.1l-101-84.9c-1.6-1.4-2.8-3.3-3.1-5.4l-22.9-130.1c-.4-2.1,0-4.3,1.1-6.2l65.9-114.4c1.1-1.9,2.8-3.3,4.8-4l123.9-45.2c1-.4,2.1-.6,3.1-.6M256,52.5c-1.9,0-3.7.3-5.5,1l-123.9,45.2c-3.6,1.3-6.6,3.8-8.4,7.1l-65.9,114.4c-1.9,3.3-2.6,7.1-1.9,10.9l22.9,130.1c.7,3.7,2.6,7.1,5.5,9.6l101,84.9c2.9,2.4,6.6,3.8,10.4,3.8h131.9c3.8,0,7.5-1.3,10.4-3.8l101-84.9c2.9-2.4,4.9-5.8,5.5-9.6l22.9-130.1c.7-3.7,0-7.6-1.9-10.9l-65.9-114.4c-1.9-3.3-4.9-5.8-8.4-7.1l-123.9-45.2c-1.8-.6-3.6-1-5.5-1h0Z"/>
    </g>
    <circle cx="256" cy="256" r="121.7"/>
    <circle class="st2" cx="256" cy="256" r="109.3"/>
    <path d="M54.2,221.2c-1.9,3.3-2.5,7.1-1.9,10.8l11,62.1h385.5l11-62.1c.7-3.7,0-7.5-1.9-10.8l-1.9-3.4H56.1l-1.9,3.4Z"/>
    <path class="st0" d="M193.2,207.2s30.3-10.4,58.1,8c27.8,18.4,53.5,65.7,53.5,65.7l34.7-7.5-32.9,49.8-7.2-35.2s-43.5,5.5-72.2-13.5c-28.7-18.9-34-67.4-34-67.4Z"/>
  </g>
</svg>